<?xml version="1.0" encoding="UTF-8" standalone="no"?>
<svg
   xmlns:dc="http://purl.org/dc/elements/1.1/"
   xmlns:cc="http://creativecommons.org/ns#"
   xmlns:rdf="http://www.w3.org/1999/02/22-rdf-syntax-ns#"
   xmlns:svg="http://www.w3.org/2000/svg"
   xmlns="http://www.w3.org/2000/svg"
   viewBox="0 0 145.16 53.959999"
   height="53.959999"
   width="145.16"
   xml:space="preserve"
   id="svg2"
   version="1.1"><metadata
     id="metadata8"><rdf:RDF><cc:Work
         rdf:about=""><dc:format>image/svg+xml</dc:format><dc:type
           rdf:resource="http://purl.org/dc/dcmitype/StillImage" /></cc:Work></rdf:RDF></metadata><defs
     id="defs6" /><g
     transform="matrix(1.3333333,0,0,-1.3333333,0,53.96)"
     id="g10"><g
       transform="scale(0.1)"
       id="g12"><path
         id="path14"
         style="fill:#00a650;fill-opacity:1;fill-rule:nonzero;stroke:none"
         d="M 38.293,175.82 H 0 v 40.403 H 109.004 V 175.82 H 70.2813 V 3.47656 H 38.293 V 175.82" /><path
         id="path16"
         style="fill:#00a650;fill-opacity:1;fill-rule:nonzero;stroke:none"
         d="m 169.609,0 c -41.875,0 -66.718,47.668 -66.718,108.273 0,63.758 27.363,111.422 69.035,111.422 43.554,0 67.332,-48.922 67.332,-107.632 C 239.258,41.9844 211.27,0 169.824,0 Z m 1.68,38.1914 c 21.68,0 34.094,30.625 34.094,72.2776 0,38.203 -11.992,71.035 -34.094,71.035 -22.09,0 -34.512,-32.207 -34.512,-71.981 0,-40.0816 12.84,-71.3316 34.297,-71.3316 h 0.215" /><path
         id="path18"
         style="fill:#00a650;fill-opacity:1;fill-rule:nonzero;stroke:none"
         d="m 249.785,213.391 c 9.883,2.515 23.781,4.414 43.34,4.414 19.785,0 33.887,-5.688 43.359,-17.364 9.258,-10.414 15.149,-28.086 15.149,-48.925 0,-21.145 -4.414,-38.828 -13.047,-50.508 C 327.648,85.8594 311.445,78.6055 292.5,78.6055 c -4.207,0 -7.996,0.3008 -10.937,1.25 V 3.47656 h -31.778 z m 31.778,-96.606 c 2.734,-0.933 5.886,-1.258 10.734,-1.258 17.039,0 27.558,12.95 27.558,34.407 0,19.57 -9.042,31.257 -25.246,31.257 -6.316,0 -10.73,-0.632 -13.046,-1.589 v -62.817" /><path
         id="path20"
         style="fill:#2e3192;fill-opacity:1;fill-rule:nonzero;stroke:none"
         d="m 591.223,216.223 v -82.071 h 52.82 v 82.071 h 31.992 V 3.47656 H 644.043 V 92.168 h -52.82 V 3.47656 H 559.238 V 216.223 h 31.985" /><path
         id="path22"
         style="fill:#2e3192;fill-opacity:1;fill-rule:nonzero;stroke:none"
         d="m 739.785,0 c -30.09,0 -53.23,29.6797 -53.23,79.543 0,49.883 21.883,81.758 55.136,81.758 31.356,0 52.391,-32.524 52.391,-79.2229 C 794.082,25.8789 767.363,0 740,0 Z m 0.852,34.4023 c 12.625,0 20.41,18.6329 20.41,46.4102 0,22.7225 -5.891,46.0825 -20.41,46.0825 -15.149,0 -21.047,-23.36 -21.047,-46.3989 0,-26.1992 7.363,-46.0938 20.832,-46.0938 h 0.215" /><path
         id="path24"
         style="fill:#2e3192;fill-opacity:1;fill-rule:nonzero;stroke:none"
         d="M 839.109,199.816 V 157.82 h 22.942 V 122.473 H 839.109 V 66.5938 c 0,-18.6133 3.164,-27.1407 12.629,-27.1407 4.422,0 6.524,0.3242 9.473,1.2696 l 0.215,-36.29692 c -4.004,-2.20703 -11.785,-4.105467 -20.625,-4.105467 -10.313,0 -18.938,5.363277 -24.199,13.265587 -5.899,9.1407 -8.836,23.9805 -8.836,45.7618 v 63.1253 h -13.684 v 35.347 h 13.684 v 29.043 l 31.343,12.953" /><path
         id="path26"
         style="fill:#2e3192;fill-opacity:1;fill-rule:nonzero;stroke:none"
         d="m 893.613,65.3438 c 1.055,-19.8829 14.102,-29.3594 29.043,-29.3594 10.949,0 19.785,2.207 28.41,6.625 l 4.207,-32.5 C 944.758,3.47656 931.914,0.320313 918.027,0.320313 c -34.929,0 -54.922,30.292987 -54.922,78.585987 0,39.1527 16.418,82.3947 51.973,82.3947 33.262,0 45.879,-38.828 45.879,-77.0158 0,-8.211 -0.625,-15.4688 -1.055,-18.9414 z m 37.676,32.832 c 0,11.6682 -3.367,31.2502 -17.891,31.2502 -13.671,0 -19.148,-18.625 -19.992,-31.2502 h 37.883" /><path
         id="path28"
         style="fill:#2e3192;fill-opacity:1;fill-rule:nonzero;stroke:none"
         d="m 969.59,3.47656 h 31.9805 v 224.434 H 969.59 Z" /><path
         id="path30"
         style="fill:#2e3192;fill-opacity:1;fill-rule:nonzero;stroke:none"
         d="m 1016.73,45.4609 c 5.89,-5.3711 18.09,-11.3671 27.57,-11.3671 9.68,0 13.67,4.7343 13.67,12.625 0,7.8828 -3.15,12.0039 -14.94,17.6679 -21.46,10.7422 -29.67,28.1016 -29.46,46.0933 0,29.043 16.41,50.821 41.87,50.821 12,0 22.52,-4.414 28.84,-9.16 l -5.48,-32.825 c -4.63,3.477 -13.68,8.528 -22.3,8.528 -7.79,0 -12.2,-4.746 -12.2,-12.317 0,-7.254 3.99,-11.367 16.62,-17.6754 19.57,-10.086 27.56,-24.9297 27.77,-47.3555 0,-29.0195 -14.94,-50.175787 -44.39,-50.175787 -13.48,0 -25.47,4.730467 -33.25,11.046887 l 5.68,34.0937" /><path
         id="path32"
         style="fill:#fbc707;fill-opacity:1;fill-rule:nonzero;stroke:none"
         d="M 356.094,403.32 384.805,3.97656 H 514.727 L 542.082,401.953 495.586,333.574 449.094,404.68 406.699,332.207 356.094,403.32" /><path
         id="path34"
         style="fill:#fff200;fill-opacity:1;fill-rule:nonzero;stroke:none"
         d="m 381.863,259.727 h 28.7109 v 20.5156 H 381.863 Z" /><path
         id="path36"
         style="fill:#fff200;fill-opacity:1;fill-rule:nonzero;stroke:none"
         d="m 434.004,259.727 h 28.7109 v 20.5156 H 434.004 Z" /><path
         id="path38"
         style="fill:#fff200;fill-opacity:1;fill-rule:nonzero;stroke:none"
         d="m 486.145,259.727 h 28.7109 v 20.5156 H 486.145 Z" /><path
         id="path40"
         style="fill:#fff200;fill-opacity:1;fill-rule:nonzero;stroke:none"
         d="m 384.023,225.547 h 28.7109 v 20.5078 H 384.023 Z" /><path
         id="path42"
         style="fill:#fff200;fill-opacity:1;fill-rule:nonzero;stroke:none"
         d="m 434.004,225.547 h 28.7109 v 20.5078 H 434.004 Z" /><path
         id="path44"
         style="fill:#fff200;fill-opacity:1;fill-rule:nonzero;stroke:none"
         d="m 483.984,225.547 h 28.7109 v 20.5078 H 483.984 Z" /><path
         id="path46"
         style="fill:#fff200;fill-opacity:1;fill-rule:nonzero;stroke:none"
         d="m 386.184,191.965 h 28.7109 v 20.5156 H 386.184 Z" /><path
         id="path48"
         style="fill:#fff200;fill-opacity:1;fill-rule:nonzero;stroke:none"
         d="m 434.004,191.965 h 28.7109 v 20.5156 H 434.004 Z" /><path
         id="path50"
         style="fill:#fff200;fill-opacity:1;fill-rule:nonzero;stroke:none"
         d="m 481.824,191.965 h 28.7227 v 20.5156 H 481.824 Z" /><path
         id="path52"
         style="fill:#fff200;fill-opacity:1;fill-rule:nonzero;stroke:none"
         d="m 388.332,157.781 h 28.7188 v 20.5195 H 388.332 Z" /><path
         id="path54"
         style="fill:#fff200;fill-opacity:1;fill-rule:nonzero;stroke:none"
         d="m 434.004,157.781 h 28.7109 v 20.5195 H 434.004 Z" /><path
         id="path56"
         style="fill:#fff200;fill-opacity:1;fill-rule:nonzero;stroke:none"
         d="m 479.668,157.781 h 28.7227 v 20.5195 H 479.668 Z" /><path
         id="path58"
         style="fill:#fff200;fill-opacity:1;fill-rule:nonzero;stroke:none"
         d="m 388.332,124.211 h 28.7188 v 20.5156 H 388.332 Z" /><path
         id="path60"
         style="fill:#fff200;fill-opacity:1;fill-rule:nonzero;stroke:none"
         d="m 434.004,124.211 h 28.7109 v 20.5156 H 434.004 Z" /><path
         id="path62"
         style="fill:#fff200;fill-opacity:1;fill-rule:nonzero;stroke:none"
         d="m 479.668,124.211 h 28.7227 v 20.5156 H 479.668 Z" /><path
         id="path64"
         style="fill:#fff200;fill-opacity:1;fill-rule:nonzero;stroke:none"
         d="m 390.488,90.0273 h 28.7227 v 20.5078 H 390.488 Z" /><path
         id="path66"
         style="fill:#fff200;fill-opacity:1;fill-rule:nonzero;stroke:none"
         d="m 434.004,90.0273 h 28.7109 v 20.5078 H 434.004 Z" /><path
         id="path68"
         style="fill:#fff200;fill-opacity:1;fill-rule:nonzero;stroke:none"
         d="m 477.52,90.0273 h 28.7109 v 20.5078 H 477.52 Z" /></g></g></svg>